<svg xmlns="http://www.w3.org/2000/svg" xmlns:xlink="http://www.w3.org/1999/xlink" width="279.515" height="218.701" viewBox="0 0 279.515 218.701"><defs><linearGradient id="a" x1="0.5" y1="1" x2="0.5" gradientUnits="objectBoundingBox"><stop offset="0" stop-color="gray" stop-opacity="0.251"/><stop offset="0.54" stop-color="gray" stop-opacity="0.122"/><stop offset="1" stop-color="gray" stop-opacity="0.102"/></linearGradient></defs><g transform="translate(0 0.013)"><path d="M205.3,37.338c7.59-6.771,19.509-8.142,30.375-7.622,34.1,1.7,64.881,18.157,91.507,36.779,9.64,6.74,19.13,14.005,25.386,23.289,12.746,18.9,8.959,45.077-8.751,60.646-6.027,5.3-13.331,9.365-20.831,12.957-13.334,6.4-27.722,11.537-42.856,13.006-10.79,1.04-21.715.2-32.445-1.259-29.974-4.066-59.4-13.056-84.06-28.434-10.816-6.745-21.016-15.132-25.469-26.044s-1.6-24.741,9.44-31.2c4.568-2.671,10.03-3.878,15.376-5.013,7.871-1.667,15.868-3.311,22.969-6.7,7.338-3.5,16.024-10.272,14.567-18.024C198.953,51.4,197.7,44.1,205.3,37.338Z" transform="translate(-117.047 -29.63)" fill="#457b9d" opacity="0.1"/><ellipse cx="34.633" cy="10.842" rx="34.633" ry="10.842" transform="translate(85.267 194.361)" fill="#457b9d" opacity="0.1"/><path d="M733.95,359.485l1.256,66.779,2.671.315-1.007-67.36Z" transform="translate(-543.031 -265.787)" fill="#f5c5cc"/><path d="M739.87,355.45l1.433,69.5.955-1.163-1.007-67.359Z" transform="translate(-547.411 -262.998)" fill="none"/><path d="M709.12,354.655l1.256,66.779,2.671.315-1.007-67.36Z" transform="translate(-524.66 -262.214)" fill="#f5c5cc"/><path d="M715.04,350.62l1.431,69.5.957-1.163-1.007-67.36Z" transform="translate(-529.04 -259.424)" fill="none"/><path d="M715.19,337.921l.13,72.835,2.731-.26-1.041-74.006Z" transform="translate(-529.151 -248.97)" fill="#cc929b"/><path d="M425.56,294.544l1.152,60.534,2.672.281-.9-61.059Z" transform="translate(-314.861 -217.755)" fill="#f5c5cc"/><path d="M431.49,290.89l1.321,63,.96-1.056-.9-61.059Z" transform="translate(-319.248 -215.232)" fill="#cc929b"/><path d="M447.41,300.435l1.152,60.531,2.671.281-.9-61.057Z" transform="translate(-331.027 -222.112)" fill="#f5c5cc"/><path d="M453.34,296.77l1.324,63,.957-1.056-.9-61.057Z" transform="translate(-335.415 -219.582)" fill="#cc929b"/><path d="M468.77,306.822l1.152,60.534,2.672.281-.9-61.057Z" transform="translate(-346.831 -226.84)" fill="#f5c5cc"/><path d="M474.7,303.17l1.324,63,.957-1.056-.9-61.057Z" transform="translate(-351.218 -224.317)" fill="#cc929b"/><path d="M489.55,308.1l1.186,62.659,2.671.291-.936-63.2Z" transform="translate(-362.206 -227.78)" fill="#f5c5cc"/><path d="M495.47,304.31l1.36,65.213.957-1.092-.936-63.2Z" transform="translate(-366.586 -225.161)" fill="#cc929b"/><path d="M512.08,309.972l1.189,62.656,2.672.291L515,309.72Z" transform="translate(-378.875 -229.164)" fill="#f5c5cc"/><path d="M518.01,306.19l1.361,65.211.957-1.093-.936-63.2Z" transform="translate(-383.262 -226.552)" fill="#cc929b"/><path d="M534.22,317.85l1.186,62.659,2.672.291-.934-63.2Z" transform="translate(-395.256 -234.994)" fill="#f5c5cc"/><path d="M540.14,314.06l1.36,65.213.957-1.093-.934-63.2Z" transform="translate(-399.636 -232.375)" fill="#cc929b"/><path d="M559.56,323.028l1.217,64.407,2.672.3-.965-64.964Z" transform="translate(-414.004 -238.819)" fill="#f5c5cc"/><path d="M565.48,319.14l1.392,67.032.957-1.124-.965-64.964Z" transform="translate(-418.384 -236.133)" fill="#cc929b"/><path d="M581.61,325.658l1.215,64.407,2.674.3-.968-64.964Z" transform="translate(-430.318 -240.765)" fill="#f5c5cc"/><path d="M587.53,321.76l1.392,67.034.957-1.124-.968-64.964Z" transform="translate(-434.698 -238.072)" fill="#cc929b"/><path d="M604.97,332.265l1.217,64.407,2.672.3-.965-64.964Z" transform="translate(-447.602 -245.655)" fill="#f5c5cc"/><path d="M610.9,328.37l1.389,67.034.957-1.124-.965-64.964Z" transform="translate(-451.989 -242.962)" fill="#cc929b"/><path d="M405.18,281.823l-.13-3.834,1.353-.739,97.011,19.9.179,4.867Z" transform="translate(-299.686 -205.14)" fill="#f5c5cc"/><path d="M406.972,277.25l97.368,19.881-.1,1.823L405.82,277.877" transform="translate(-300.256 -205.14)" fill="#cc929b"/><path d="M410.153,365.032l-2.731.994h-2.6l-.13-102.63,1.431-1.987L407.5,261l1.74-.263Z" transform="translate(-299.42 -192.924)" fill="#f5c5cc"/><path d="M417.44,365.032l-2.731.994L414.54,263.6l.25-2.6,1.74-.263Z" transform="translate(-306.708 -192.924)" fill="#cc929b"/><path d="M630.35,339.588l1.217,64.4,2.671.3-.965-64.964Z" transform="translate(-466.38 -251.071)" fill="#f5c5cc"/><path d="M636.27,335.69l1.392,67.034.957-1.124-.965-64.964Z" transform="translate(-470.76 -248.378)" fill="#cc929b"/><path d="M655.92,343.49l1.241,65.783,2.672.307-.991-66.35Z" transform="translate(-485.298 -253.957)" fill="#f5c5cc"/><path d="M661.84,339.51l1.415,68.465.957-1.147-.991-66.35Z" transform="translate(-489.678 -251.204)" fill="none"/><path d="M682.25,348.105l1.256,66.779,2.671.315-1-67.359Z" transform="translate(-504.779 -257.368)" fill="#f5c5cc"/><path d="M688.17,344.07l1.433,69.506.955-1.165-1-67.36Z" transform="translate(-509.159 -254.578)" fill="#cc929b"/><path d="M272.051,375.5l-2.731.26-.127-71.844,0-.991,1.821-1.431.029,1.993Z" transform="translate(-199.167 -223.074)" fill="#f5c5cc"/><path d="M309.051,360l-2.731.26-.127-70.671,0-2.164,1.821-1.431.042,2.9Z" transform="translate(-226.542 -211.606)" fill="#f5c5cc"/><path d="M370.051,335l-2.731.26-.125-69.779-.005-3.056,1.821-1.431.057,4.053Z" transform="translate(-271.675 -193.109)" fill="#f5c5cc"/><path d="M396.551,325l-2.731.26-.122-68.075-.008-4.76,1.821-1.431.094,6.612Z" transform="translate(-291.281 -185.711)" fill="#f5c5cc"/><path d="M290.551,372.5l-2.731.26-.13-72.315v-.52l1.821-1.431.018,1.371Z" transform="translate(-212.855 -220.855)" fill="#f5c5cc"/><path d="M344.551,347.5l-2.731.26-.127-70.952,0-1.883,1.821-1.431.036,2.669Z" transform="translate(-252.808 -202.358)" fill="#f5c5cc"/><path d="M327.051,352.5l-2.731.26-.125-70.523-.005-2.313,1.821-1.431.042,3.012Z" transform="translate(-239.86 -206.057)" fill="#f5c5cc"/><path d="M317.87,569.48l-.65,1.366a11.394,11.394,0,0,0-1.5,6.438c.2,3.9-2.724,14.242-2.724,14.242a12.027,12.027,0,0,0,4.682,1.105c2.016-.13,6.373,2.016,6.373,2.016l9.032,2.8,18.274,4.292s10.73,5.983,13.657,5.983,14.567,3.967,14.567,3.967,15.738,3.447,16.973,4.747,6.446,3.051,6.966,3.121,8.454.845,8.454.845,9.234,2.146,10.535-.13a11.727,11.727,0,0,0,1.5-4.162s4.1.91,5.2-.455,1.171-4.292,2.471-4.162,6.633,1.756,7.219,1.171,3.707-7.479,5.918-6.438,6.048,2.666,6.048,2.666l-2.211-22.5-.975-6.178S412.238,594.652,411,594.652,317.87,569.48,317.87,569.48Z" transform="translate(-247.898 -429.061)" fill="#457b9d"/><path d="M450.022,431.41l-.2,31.735-36.816,14.117-93.255-24.777s-6.308-8.909-.455-17.233c0,0-7.544-10.4,1.821-17.168l.232-.055,35.406-8.529,15.745,2.877L442.075,425.1S448.909,427.639,450.022,431.41Z" transform="translate(-250.436 -310.696)" fill="#457b9d"/><path d="M385.268,415.413c-1.756.91-14.5,4.227-17.038,6.243s-20.095,3.582-20.095,3.582l-1.951.39s.13-1.3-7.609-5.072a9.867,9.867,0,0,1-3.215-2.526l35.406-8.529,15.745,2.877C386.532,413.623,386.319,414.866,385.268,415.413Z" transform="translate(-264.442 -310.696)" opacity="0.1"/><path d="M321.432,384s-.65,12.616,7.088,16.388,7.617,5.067,7.617,5.067l1.951-.39s-6.763-7.544-6.308-8.844-6.048-7.869-6.966-8.129S321.432,384,321.432,384Z" transform="translate(-254.127 -291.829)" fill="#457b9d"/><path d="M321.962,384.73s-.65,12.616,7.088,16.388,7.609,5.072,7.609,5.072l1.951-.39s-6.763-7.544-6.308-8.844-6.056-7.869-6.958-8.129S321.962,384.73,321.962,384.73Z" transform="translate(-254.519 -292.369)" opacity="0.1"/><path d="M329,405.23s6.243,9.43,7.349,9.755S330.488,405.36,329,405.23Z" transform="translate(-259.736 -307.536)" opacity="0.1"/><path d="M318,338.089s4.032-3.252,4.552-3.9,6.243-.91,6.438-.91a35.408,35.408,0,0,1,9.43-3.512c4.877-.845,6.828-1.236,6.828-1.236s7.153-2.991,7.544-3.642,3.707-1.366,7.8,1.821,13.136,17.493,13.2,19.054.65,4.422-1.105,5.333-14.5,4.227-17.038,6.243-20.1,3.582-20.1,3.582l-6.625-7.224-3.512-5.658-5.853-6.178Z" transform="translate(-251.598 -247.679)" fill="#457b9d"/><path d="M355.624,593.15s-2.427.52-1.04,1.907S355.624,593.15,355.624,593.15Z" transform="translate(-278.348 -446.574)" opacity="0.1"/><path d="M386.355,603.82s-2.6,3.121-2.081,3.988S386.355,603.82,386.355,603.82Z" transform="translate(-300.582 -454.468)" opacity="0.1"/><path d="M445.025,619.15s-2.6,3.122-2.081,3.988S445.025,619.15,445.025,619.15Z" transform="translate(-343.99 -465.81)" opacity="0.1"/><path d="M516.355,639.15s-2.6,3.122-2.081,3.988S516.355,639.15,516.355,639.15Z" transform="translate(-396.765 -480.608)" opacity="0.1"/><path d="M612.355,663.15s-2.6,3.121-2.081,3.988S612.355,663.15,612.355,663.15Z" transform="translate(-467.793 -498.365)" opacity="0.1"/><path d="M415.025,607.15s-2.6,3.122-2.081,3.988S415.025,607.15,415.025,607.15Z" transform="translate(-321.794 -456.932)" opacity="0.1"/><path d="M554.355,649.15s-2.6,3.121-2.081,3.988S554.355,649.15,554.355,649.15Z" transform="translate(-424.88 -488.007)" opacity="0.1"/><path d="M583.685,658.48s-2.6,3.122-2.081,3.99S583.685,658.48,583.685,658.48Z" transform="translate(-446.581 -494.91)" opacity="0.1"/><path d="M471.025,627.15s-2.6,3.122-2.081,3.988S471.025,627.15,471.025,627.15Z" transform="translate(-363.227 -471.729)" opacity="0.1"/><path d="M729.14,699.82l2.752,12.723S731.913,703.633,729.14,699.82Z" transform="translate(-555.79 -525.496)" opacity="0.1"/><path d="M761.8,707.15l1.93,6.2A20.857,20.857,0,0,0,761.8,707.15Z" transform="translate(-579.954 -530.919)" opacity="0.1"/><path d="M782.42,689.722s-4.118-15-4.987-16.039S779.941,688.77,782.42,689.722Z" transform="translate(-591.418 -506.122)" opacity="0.1"/><path d="M806.155,679.466s-4.854-8.5-2.947-10.057S806.155,679.466,806.155,679.466Z" transform="translate(-610.262 -502.889)" opacity="0.1"/><path d="M327.47,508.406l94.251,21.158,36.246-10.579-36.592,9.539S330.331,507.54,327.47,508.406Z" transform="translate(-258.604 -383.854)" opacity="0.1"/><path d="M275.69,389.935l.13,60.544,2.666.325.13-61.064Z" transform="translate(-203.976 -288.368)" fill="#f5c5cc"/><path d="M281.69,386.24l.26,63.015.975-1.041.13-61.064Z" transform="translate(-208.415 -285.779)" fill="#cc929b"/><path d="M297.44,396.185l.13,60.544,2.666.325.13-61.064Z" transform="translate(-220.068 -292.992)" fill="#f5c5cc"/><path d="M303.44,392.49l.26,63.015.975-1.04.13-61.064Z" transform="translate(-224.508 -290.403)" fill="#cc929b"/><path d="M318.69,402.935l.13,60.544,2.666.325.13-61.064Z" transform="translate(-235.791 -297.987)" fill="#f5c5cc"/><path d="M324.69,399.24l.26,63.015.975-1.041.13-61.064Z" transform="translate(-240.23 -295.397)" fill="#cc929b"/><path d="M339.44,404.563l.13,62.669,2.666.336.13-63.208Z" transform="translate(-251.143 -299.185)" fill="#f5c5cc"/><path d="M345.44,400.74l.26,65.226.976-1.077.13-63.208Z" transform="translate(-255.582 -296.507)" fill="#cc929b"/><path d="M361.94,406.813l.13,62.669,2.666.336.13-63.208Z" transform="translate(-267.79 -300.85)" fill="#f5c5cc"/><path d="M367.94,402.99l.26,65.226.976-1.077.13-63.208Z" transform="translate(-272.229 -298.172)" fill="#cc929b"/><path d="M383.94,415.063l.13,62.669,2.666.336.13-63.208Z" transform="translate(-284.067 -306.954)" fill="#f5c5cc"/><path d="M389.94,411.24l.26,65.227.975-1.077.13-63.208Z" transform="translate(-288.507 -304.276)" fill="#cc929b"/><path d="M409.19,420.668l.13,64.418,2.666.346.13-64.971Z" transform="translate(-302.749 -311.097)" fill="none"/><path d="M415.19,416.74l.26,67.047.975-1.108.13-64.972Z" transform="translate(-307.189 -308.345)" fill="#cc929b"/><path d="M431.19,423.668l.13,64.417,2.666.346.13-64.971Z" transform="translate(-319.026 -313.317)" fill="#f5c5cc"/><path d="M437.19,419.74l.26,67.047.975-1.108.13-64.972Z" transform="translate(-323.466 -310.564)" fill="#cc929b"/><path d="M454.44,430.668l.13,64.418,2.666.346.13-64.972Z" transform="translate(-336.229 -318.496)" fill="#f5c5cc"/><path d="M460.44,426.74l.26,67.047.976-1.108.13-64.972Z" transform="translate(-340.668 -315.744)" fill="#cc929b"/><path d="M479.69,438.418l.13,64.417,2.666.346.13-64.972Z" transform="translate(-354.91 -324.23)" fill="#f5c5cc"/><path d="M485.69,434.49l.26,67.047.975-1.108.13-64.972Z" transform="translate(-359.35 -321.478)" fill="#cc929b"/><path d="M505.19,442.753l.13,65.791,2.666.354.13-66.358Z" transform="translate(-373.777 -327.434)" fill="#f5c5cc"/><path d="M511.19,438.74l.26,68.478.976-1.132.13-66.358Z" transform="translate(-378.216 -324.622)" fill="#cc929b"/><path d="M531.44,447.816l.13,66.792,2.666.359.13-67.367Z" transform="translate(-393.199 -331.177)" fill="#cc929b"/><path d="M537.44,443.74l.26,69.519.975-1.147.13-67.367Z" transform="translate(-397.638 -328.321)" fill="none"/><path d="M558.19,454.816l.13,66.792,2.666.359.13-67.367Z" transform="translate(-412.991 -336.357)" fill="#f5c5cc"/><path d="M564.19,450.74l.26,69.519.975-1.147.13-67.367Z" transform="translate(-417.43 -333.501)" fill="#cc929b"/><path d="M582.94,460.066l.13,66.792,2.666.359.13-67.367Z" transform="translate(-431.302 -340.241)" fill="#cc929b"/><path d="M588.94,455.99l.26,69.518.975-1.147.13-67.367Z" transform="translate(-435.742 -337.385)" fill="none"/><path d="M246.653,391.037l-2.731,1.04h-2.6l-.13-95.466,1.431-2.081,1.381-.424,2-.617Z" transform="translate(-178.45 -217.155)" fill="#f5c5cc"/><path d="M253.94,391.037l-2.731,1.04-.169-95.255.25-2.716,2-.617Z" transform="translate(-185.738 -217.155)" fill="#cc929b"/><circle cx="3.122" cy="3.122" r="3.122" transform="translate(62.61 171.671)" fill="#40414d"/><path d="M783.653,427.107l-2.731.994h-2.6l-.13-104.971,1.431.354,1.381-.406,2-.588Z" transform="translate(-575.763 -238.612)" fill="#f5c5cc"/><path d="M790.94,427.107l-2.731.994-.169-102.427.25-2.6,2-.588Z" transform="translate(-583.051 -238.612)" fill="#cc929b"/><path d="M645.551,438.5l-2.731.26-.125-70.127-.005-2.708,1.821-1.431.052,3.738Z" transform="translate(-475.51 -269.686)" fill="#f5c5cc"/><path d="M682.551,423l-2.731.26-.122-68.832-.008-4,1.821-1.431.068,4.75Z" transform="translate(-502.885 -258.218)" fill="#f5c5cc"/><path d="M743.551,398l-2.731.26-.122-68.671-.008-4.165,1.821-1.431.068,4.815Z" transform="translate(-548.018 -239.721)" fill="#f5c5cc"/><path d="M767.19,315.421l.13,72.835,2.731-.26-1.041-74.006Z" transform="translate(-567.624 -232.323)" fill="#f5c5cc"/><path d="M664.051,435.5l-2.731.26-.125-70.525-.005-2.31,1.821-1.431.044,3.176Z" transform="translate(-489.198 -267.467)" fill="#f5c5cc"/><path d="M700.551,415.5l-2.731.26-.122-68.65-.008-4.185,1.821-1.431.068,4.859Z" transform="translate(-516.203 -252.669)" fill="#f5c5cc"/><path d="M720.882,408.826l-2.731.26-.122-68.65v-.408l-.008-3.777,1.821-1.431.063,4.438.005.421Z" transform="translate(-531.245 -247.734)" fill="#f5c5cc"/><path d="M632.69,601.532l37.718-16.042,2.6.606.086,5.983-39.711,15.347Z" transform="translate(-468.111 -433.199)" fill="#f5c5cc"/><path d="M670.408,585.49,632.69,601.532l40.179-15.47" transform="translate(-468.111 -433.199)" fill="#cc929b"/><path d="M256.036,614.49l95.12,28.874-.174,4.682L255.69,618.652Z" transform="translate(-189.178 -454.655)" fill="#f5c5cc"/><path d="M685.883,506.633l-2.731,1.041h-2.6l-.13-106.912h0v-.52l.2-.3,1.228-1.784,1.381-.424,2-.617.021,3.642Z" transform="translate(-519.743 -301.536)" fill="#f5c5cc"/><path d="M630.44,477l-2.731,1.04-.169-107.221.25-2.716,2-.616Z" transform="translate(-464.301 -271.906)" fill="#cc929b"/><path d="M685.232,397.12l.021,3.642a22.169,22.169,0,0,1-2.271.213,6.952,6.952,0,0,1-2.562-.211h0c0-.036.073-.328.2-.814l1.228-1.784,1.381-.424Z" transform="translate(-519.743 -301.536)" opacity="0.1"/><path d="M707.256,394.12l.052,3.738q-1.007.234-1.868.4v-2.708Z" transform="translate(-538.255 -299.316)" opacity="0.1"/><path d="M725.756,391.12l.044,3.176c-.648.206-1.269.393-1.86.564v-2.31Z" transform="translate(-551.942 -297.097)" opacity="0.1"/><path d="M744.263,378.62l.068,4.75q-.975.362-1.881.684v-4Z" transform="translate(-565.638 -287.848)" opacity="0.1"/><path d="M762.263,371.12l.068,4.859-1.5.6-.382.154v-4.185Z" transform="translate(-578.955 -282.299)" opacity="0.1"/><path d="M805.331,358.442l-1.881.78v-4.162l1.821-1.431Z" transform="translate(-610.77 -269.359)" opacity="0.1"/><path d="M782.666,368.917l-1.876.78v-3.777l1.821-1.431Z" transform="translate(-594.004 -277.394)" opacity="0.1"/><path d="M728.543,330.645a39.785,39.785,0,0,1-6.113-.39c-1.3-.39-4.032,1.171-20.81,7.934-10.145,4.092-15.777,5.041-18.638,5.153a6.952,6.952,0,0,1-2.562-.211s3.426-15.717,14.336-18.654a32.365,32.365,0,0,0,3.582-1.2l.211-.081a21.326,21.326,0,0,1,2.812-.871c3.5-.8,6-2.341,12.33-2.388a17.312,17.312,0,0,1,10.868,3.605C726.728,325.245,728.6,327.6,728.543,330.645Z" transform="translate(-519.743 -244.426)" fill="#cc929b"/><path d="M699.019,332.12c-13.5,5.822-15.561,16.7-16.037,20.24a6.952,6.952,0,0,1-2.562-.211s3.426-15.717,14.336-18.654a32.352,32.352,0,0,0,3.582-1.2l.211-.081C698.7,332.188,698.86,332.156,699.019,332.12Z" transform="translate(-519.743 -253.444)" fill="#f5c5cc"/><path d="M333.748,331.12l.029,1.993c-.658.164-1.272.307-1.847.429v-.991Z" transform="translate(-261.904 -252.704)" opacity="0.1"/><path d="M352.241,328.12l.018,1.371q-.96.317-1.839.58v-.52Z" transform="translate(-275.585 -250.485)" opacity="0.1"/><path d="M370.748,315.62l.042,2.9q-.96.367-1.86.692v-2.164Z" transform="translate(-289.28 -241.236)" opacity="0.1"/><path d="M388.756,308.12l.042,3.012q-.9.346-1.857.731v-2.313Z" transform="translate(-302.605 -235.687)" opacity="0.1"/><path d="M406.248,303.12l.036,2.669q-.884.3-1.855.645v-1.883Z" transform="translate(-315.545 -231.988)" opacity="0.1"/><path d="M431.756,290.62l.057,4.053c-.575.12-1.2.26-1.873.434v-3.056Z" transform="translate(-334.419 -222.739)" opacity="0.1"/><path d="M458.357,287.192a6.86,6.86,0,0,0-1.907-.421v-4.76l1.821-1.431Z" transform="translate(-354.033 -215.311)" opacity="0.1"/><path d="M352.043,277.6a39.788,39.788,0,0,1-6.113-.39c-1.3-.39-4.032-2.471-20.81,4.292-10.145,4.092-15.777,5.041-18.638,5.153a6.95,6.95,0,0,1-2.562-.211s2.583-13.657,13.974-15.961a16.74,16.74,0,0,0,1.881-.481c.7-.229,1.8-.557,3.285-.9a68.751,68.751,0,0,1,18.589-1.436,11.529,11.529,0,0,1,7.749,3.4,8.925,8.925,0,0,1,2.646,6.534Z" transform="translate(-241.18 -205.684)" fill="#cc929b"/><path d="M323.06,273.46c-13.5,5.822-16.1,14.013-16.578,17.551a6.951,6.951,0,0,1-2.562-.211s2.583-13.657,13.974-15.961a16.738,16.738,0,0,0,1.881-.481C320.474,274.121,321.577,273.8,323.06,273.46Z" transform="translate(-241.18 -210.043)" fill="#f5c5cc"/><path d="M255.505,376.792l-.065-3.837,1.366-.715,93.385,20.94-.26,4.877Z" transform="translate(-188.994 -275.42)" fill="#f5c5cc"/><path d="M257.383,372.24l93.385,20.94-.13,1.821L256.22,372.849" transform="translate(-189.571 -275.42)" fill="#cc929b"/><circle cx="3.122" cy="3.122" r="3.122" transform="translate(202.037 186.368)" fill="#40414d"/><circle cx="3.122" cy="3.122" r="3.122" transform="translate(160.677 204.056)" fill="#40414d"/><path d="M321.09,579.45a20.3,20.3,0,0,0-3.642,5.9c-.866,2.776,1.04,13.181,1.04,13.181a19.159,19.159,0,0,0,2.081-5.551C321.262,589.683,321.09,579.45,321.09,579.45Z" transform="translate(-251.023 -436.437)" fill="#457b9d"/><path d="M831.391,679.12s1.691,8.584,1.821,9.885-4.292-.65-4.292-.65Z" transform="translate(-629.614 -510.181)" fill="#457b9d"/><path d="M452.4,112h-.044a.52.52,0,0,0-.1-.245,1.277,1.277,0,0,0-.432-.328l-1.22-.679,1.053.382a2.354,2.354,0,0,0-.164-.245l.122.068-.083-.117-.112-.039a3.086,3.086,0,0,0-2.406-.918h.016c.117-.016.237-.026.354-.034a4.222,4.222,0,0,0-.78.023h0a.365.365,0,0,0,.091.026,2.447,2.447,0,0,0-.26.026.78.78,0,0,1-.408,0,.591.591,0,0,1-.315-.429,4.756,4.756,0,0,1,.135-1.623,1.739,1.739,0,0,0-.081-.757v-.156a.78.78,0,0,0-.52-.479.489.489,0,0,0,0,.06l-.044-.018v1.4a5.581,5.581,0,0,1-1.064-1.108.486.486,0,0,1-.107-.221c-.026-.237.276-.4.294-.64a.356.356,0,0,0-.26-.338l.078-.029a.585.585,0,0,0-.3-.052,4.983,4.983,0,0,0-.656.2l.068.013a1.482,1.482,0,0,1-.154.042c-.653.135-1.236-.385-1.706-.856l-.1-.1c-.224-1.959-.585-4.2-.585-4.2a27.973,27.973,0,0,0-.78-3.944c-.455-1.379-1.111-3.813-1.111-3.813A20.2,20.2,0,0,0,439,89.774a3.975,3.975,0,0,1-.367-.208,5.824,5.824,0,0,1-.26-1.363c-.081-2.586,2.682-4.422,3.1-6.984.341-2.081-.97-4.162-.78-6.272a22.78,22.78,0,0,1,.661-2.7,7.265,7.265,0,0,0,.075-2.671A4.4,4.4,0,0,0,441,68.207a7.4,7.4,0,0,0,.939-1.589,4.442,4.442,0,0,0-.692-3.642,14.5,14.5,0,0,0-10.4-6.6c-1.615-.148-3.236-.177-4.854-.2a13.517,13.517,0,0,0-5.494.663c-3.413,1.428-5.028,5.244-7.1,8.324a23.6,23.6,0,0,1-6.456,6.443c-1.2.8-2.6,1.654-2.882,3.077a2.8,2.8,0,0,0-.049.414,3.8,3.8,0,0,1-.086-.38c-.284,1.485.765,2.861,1.3,4.279a7.544,7.544,0,0,1,.479,2.313,10.135,10.135,0,0,0,0-1.124c.52,2.7-.434,5.6-1.025,8.358-.044.2-.078.406-.12.609a4.975,4.975,0,0,0-1.368.617,7.7,7.7,0,0,1-3.075,1.2,5.743,5.743,0,0,0-3.7,2.221c-.167.224-.328.377-.468.393-.585.068-3.847,10.254-3.847,10.254s-.679,4.2-.679,5.179-1.173,8.085-1.173,8.085a5.364,5.364,0,0,0-.26,1.839,8.219,8.219,0,0,1-.273,2.107.468.468,0,0,1-.182-.135c-.2-.393-3.785,0-2.674,2.63a5.155,5.155,0,0,0,1.256,1.868,12.592,12.592,0,0,0-.866,2.536s0,.939.083,2.1c-.762.52-1.386.988-1.386.988-.055,1.436.9,1.665,1.8,1.613.232.832.57,1.493,1.067,1.673,1.631.593,2.674.33,3.2.78a18.635,18.635,0,0,0,3.311,1.324,32.97,32.97,0,0,0,3.574.341l.479.239-.057-.26c.153-.029.083-.211-.109-.52-.086-.4-.2-.918-.317-1.511l.715-.26.2.289c-.26,1.363-.427,2.271-.427,2.271s-1.3,4.667-.718,5.39a1.512,1.512,0,0,1,0,1.644s-.13,1.181.2,1.181.715,1.511.39,1.579-1.821,1.314-1.3,1.576,0,.853,0,1.446c0,.432.8,1.072,1.228,1.386-.078.281-.159.58-.234.874a7.392,7.392,0,0,0-.343,2.011c.13.723-.325,2.76-.2,3.418s.588,2.1.26,2.695a6.271,6.271,0,0,0,.065,2.562l.588,5.585s-.39,1.579,0,1.972.718,5,1.108,5.522.981,3.285.52,4.206.588,2.825.588,2.825-.065,2.234-.065,2.825a3.885,3.885,0,0,0,.585,1.511,30.37,30.37,0,0,1,.52,3.943,5.2,5.2,0,0,0,.39,1.907,21.164,21.164,0,0,1,.328,2.825,2.231,2.231,0,0,0,.52,1.249,5.813,5.813,0,0,1,.52,2.432,1.8,1.8,0,0,0,.455,1.446s-.065,1.576-.065,1.774a13.846,13.846,0,0,0,1.371,1.774s-.588,1.184-.26,1.644.26,2.1.78,2.63.39,2.692,1.04,3.088,1.238.723,1.368,1.576.653,2.1,1.241,2.3a1.132,1.132,0,0,1,.286.284l-.26,1.106-.8,3.343s-.78,4.862-.718,5.585-.78,1.446-.78,1.446-.718,4.206-.848,4.732a4.7,4.7,0,0,0,.065,1.511s-.455,2.5-.13,2.63a14.515,14.515,0,0,1,1.7,1.511h.107l-.14.494-2.25,7.986s-2.081,3.483,2.742,5.257c.161.312.31.32.135.26.159.135,3.382,2.861,3.642,4.139s2.479,2.627,3.262,2.76,6,4.336,7.892.2-3.327-6.836-3.327-6.836l-3.972-2.557s-2.021-2.958-2.341-3.483-.913-3.09-.52-3.483a25.751,25.751,0,0,0,1.394-3.715c.052-.164.107-.325.159-.486a4.476,4.476,0,0,0,2.362-.26l2.906-4.583.52-.8.094.187s2.414.2,3.587.4a3.382,3.382,0,0,0,1.1-.138c.044.1.088.2.13.294a14.38,14.38,0,0,1,.723,1.881c.2.853.393,3.876.393,3.876s-1.3,4.339-1.631,5.127.325,7.362,6.784,4.732c0,0,.78-1.249,1.5-1.249s2.479-1.774,1.821-3.681-3.382-7.754-1.5-10.842c1.519-2.487,1.4-5.822-.645-7.372-.086-.065-.177-.122-.26-.18a7.461,7.461,0,0,0,0-.994c-.458-6.308-3.382-6.638-3.382-6.638s-1.7-.393-1.891-1.04a37.555,37.555,0,0,0-2.8-3.936c.042-.068.081-.135.12-.2,0-.023.026-.047.036-.07.057-.107.112-.216.164-.33a13.376,13.376,0,0,0,.653-5.777c-.065-.723,0-1.644,0-2.695s1.04-2.63.913-3.22,1.241-3.023,1.241-3.616.96-4.144.96-4.144,1.891-4.076,2.284-5.26c.375-1.134,7.055-21.809,7.6-23.484a1.012,1.012,0,0,1,.036-.109s2.133-6.979.7-11.563a7.354,7.354,0,0,0-.336-.887c.437-.211.739-.364.739-.364s-.848-2.5-.458-3.418a6.622,6.622,0,0,0,.13-2.695s-1.561-.921-1.628-1.314-.718-.921-.52-1.446,1.3-.26,1.173-1.446-1.5-2.432-1.368-3.155.65-2.037,0-2.825a5.562,5.562,0,0,1-.978-3.023c-.018-.26.039-1.027.13-2.039a22.9,22.9,0,0,0,2.151,1.184s2.8.4,2.937.133a6.184,6.184,0,0,1,.848-.921c3.522-.853,1.956-7.284,1.956-7.284s-.052-.471-.135-1.246a.684.684,0,0,0,.245-.117c.3-.219.372-.635.554-.962a4.78,4.78,0,0,1,.723-.848,8.294,8.294,0,0,0,1.4-2.482c.234-.562.473-1.124.71-1.688a3,3,0,0,1,3.213-2.292,2.719,2.719,0,0,0-.622-1.592,1.6,1.6,0,0,1,1.368.208.557.557,0,0,0,.029-.055h.016A.351.351,0,0,0,452.4,112Zm-55.7,18c.016-.13.039-.26.068-.39.127-.12.281-.26.445-.39l.91.088c-.224.182-.419.349-.577.484A.787.787,0,0,0,396.7,129.994Zm1.821-1.8a1.4,1.4,0,0,0,.377-.081h.8c-.434.3-.874.643-1.264.957l.091-.856Zm1.5-13.266s-.06,1.868.073,3.746c-.2.143-.414.3-.622.463l.46-4.331Z" transform="translate(-301.866 -49.269)" fill="url(#a)"/><path d="M546.069,728.433c-.715,0-1.5,1.236-1.5,1.236-6.438,2.6-7.088-3.9-6.763-4.682s1.626-5.072,1.626-5.072-.2-2.991-.39-3.837a14.525,14.525,0,0,0-.721-1.86c-.437-1-.905-1.977-.905-1.977s2.8-6.893,6.5-6.243a4.181,4.181,0,0,1,1.821.78c2.037,1.535,2.159,4.836.643,7.283-1.886,3.057.845,8.844,1.5,10.73S546.785,728.433,546.069,728.433Z" transform="translate(-413.941 -530.034)" fill="#fdc2cc"/><path d="M481.506,769.148c-1.886,4.1-7.088-.065-7.869-.2s-2.992-1.431-3.252-2.731-3.478-3.962-3.642-4.094c.174.055.026.047-.135-.26-4.812-1.756-2.731-5.2-2.731-5.2l2.242-7.9.619-2.177,7.023-.455s-.481,1.537-1.017,3.153a25.212,25.212,0,0,1-1.389,3.676c-.39.39.2,2.926.52,3.447s2.341,3.447,2.341,3.447l3.967,2.536S483.392,765.052,481.506,769.148Z" transform="translate(-359.197 -559.76)" fill="#fdc2cc"/><path d="M481.432,746.12s-.481,1.537-1.017,3.153a1.871,1.871,0,0,1-.934-.617l-5.658.13-.034-.034.619-2.177Z" transform="translate(-366.863 -559.752)" opacity="0.1"/><path d="M499.277,463.864a.281.281,0,0,1-.034.107c-.541,1.657-7.2,22.111-7.575,23.24-.39,1.171-2.276,5.2-2.276,5.2s-.975,3.512-.975,4.1-1.366,2.991-1.236,3.577-.91,2.146-.91,3.187-.065,1.951,0,2.666a13.173,13.173,0,0,1-.653,5.723,3.845,3.845,0,0,1-.9,1.3,2.777,2.777,0,0,1-.336.26c-2.341,1.561-2.536,17.558-2.536,17.558l-.109.172-.95,1.488-2.908,4.526s-2.341.975-3.447-.39l-5.658.13a14.244,14.244,0,0,0-1.691-1.5c-.325-.13.13-2.6.13-2.6a4.606,4.606,0,0,1-.065-1.5c.13-.52.845-4.682.845-4.682s.845-.715.78-1.431.715-5.528.715-5.528l.8-3.306.4-1.631.819-3.382,5.528-48.839,7.023-2.146,13.527.65,1.483,2.679Z" transform="translate(-361.817 -348.185)" fill="#5f5d7e"/><path d="M490.8,487.809a32.015,32.015,0,0,0-.26,4.227,40.326,40.326,0,0,1,.39,6.048c-.2.78.715,1.691,1.04,2.081s.13,1.561.2,2.471a3.326,3.326,0,0,0,.91,1.756s-.975,2.081-.26,2.406,2.211,3.317,2.211,3.317.5.632,1.168,1.491a3.566,3.566,0,0,1-1.233,1.561c-2.341,1.561-2.536,17.558-2.536,17.558l-.109.172-1.451-2.9s-8.649-13.071-9.234-13.266a.916.916,0,0,1-.364-.26l.819-3.382,5.528-48.839,7.023-2.146,13.527.65-7.122.715s-3.166,2.271-3.187,2.341l-5.689,2.406-1.041,15.608S490.869,486.573,490.8,487.809Z" transform="translate(-372.397 -348.133)" opacity="0.1"/><path d="M508.525,463.487c-.18.723-18.911-1.444-18.911-1.444l.13,5.007L488.7,482.658s-.26,4.747-.325,5.983a32.034,32.034,0,0,0-.26,4.227,40.321,40.321,0,0,1,.39,6.048c-.2.78.715,1.691,1.04,2.081s.13,1.561.2,2.471a3.327,3.327,0,0,0,.91,1.756s-.975,2.081-.26,2.406,2.211,3.317,2.211,3.317.715.9,1.561,2.011a2.784,2.784,0,0,1-.336.26c-2.341,1.561-2.536,17.558-2.536,17.558l-.109.172-.939,1.493-1.8-3.6s-6.672-10.085-8.693-12.671l.4-1.631.819-3.382,5.528-48.839,7.023-2.146,13.527.65Z" transform="translate(-371.272 -348.185)" opacity="0.1"/><path d="M545.752,706.767c-.26,4.656-5.166,6.935-7.427,7.45-.437-1-.905-1.977-.905-1.977s2.8-6.893,6.5-6.243a4.182,4.182,0,0,1,1.829.77Z" transform="translate(-413.941 -530.034)" opacity="0.1"/><path d="M455.108,453.095a32.035,32.035,0,0,0-.26,4.227,40.32,40.32,0,0,1,.39,6.048c-.2.78.715,1.691,1.041,2.081s.13,1.561.2,2.471a3.327,3.327,0,0,0,.91,1.756s-.975,2.081-.26,2.406,2.211,3.317,2.211,3.317,4.227,5.333,4.422,5.983,1.886,1.04,1.886,1.04,2.926.325,3.382,6.568-7.219,8.649-8.389,8.454-3.577-.39-3.577-.39l-1.886-3.772s-8.649-13.071-9.234-13.266-1.106-1.431-1.236-2.276-.715-1.171-1.366-1.561-.52-2.536-1.04-3.057-.455-2.146-.78-2.6.26-1.626.26-1.626a13.758,13.758,0,0,1-1.366-1.756c0-.2.065-1.756.065-1.756a1.776,1.776,0,0,1-.455-1.431,5.741,5.741,0,0,0-.52-2.406,2.2,2.2,0,0,1-.52-1.236,20.822,20.822,0,0,0-.325-2.8,5.146,5.146,0,0,1-.39-1.886,30.191,30.191,0,0,0-.52-3.9,3.816,3.816,0,0,1-.585-1.5c0-.585.065-2.8.065-2.8s-1.04-1.886-.585-2.8-.13-3.642-.52-4.162-.715-5.072-1.106-5.463,0-1.951,0-1.951l-.585-5.528a6.193,6.193,0,0,1-.065-2.536c.325-.585-.13-2.016-.26-2.666s.325-2.666.2-3.382a7.318,7.318,0,0,1,.341-1.99c.307-1.186.7-2.432.7-2.432s33.426-3.121,38.238.13a5.454,5.454,0,0,1,2.081,2.994c1.423,4.537-.7,11.446-.7,11.446l-18.469,2.406-1.04,15.608S455.173,451.859,455.108,453.095Z" transform="translate(-337.482 -313.42)" fill="#5f5d7e"/><path d="M494.42,652.811s5.788-1.756,7.153-.585S494.42,652.811,494.42,652.811Z" transform="translate(-382.126 -489.984)" opacity="0.1"/><path d="M502.42,679.126a4.829,4.829,0,0,1,4.357-1.3,7.088,7.088,0,0,0,4.552-.455Z" transform="translate(-388.045 -508.886)" opacity="0.1"/><path d="M525.92,691.49s4.747-.65,4.942-.065S525.92,691.49,525.92,691.49Z" transform="translate(-405.432 -519.104)" opacity="0.1"/><path d="M519.93,704.08s5.268-1.561,5.528-.91-5.788.845-5.788.845Z" transform="translate(-400.808 -527.857)" opacity="0.1"/><path d="M531.2,572.37s-4.942,4.357-4.227,4.812S531.2,572.37,531.2,572.37Z" transform="translate(-406.156 -431.199)" opacity="0.1"/><path d="M527.92,613.87s3.447,0,2.8.78S527.92,613.87,527.92,613.87Z" transform="translate(-406.912 -461.904)" opacity="0.1"/><path d="M532.818,625.62s-1.366,1.171-1.04,1.431S532.818,625.62,532.818,625.62Z" transform="translate(-409.729 -470.597)" opacity="0.1"/><path d="M478.17,732.87s4.292,1.431,4.357,2.341S478.17,732.87,478.17,732.87Z" transform="translate(-370.104 -549.949)" opacity="0.1"/><path d="M485.043,175.01l-1.366,8.129s-11.836,6.243-12.031,6.243-8.649-1.431-8.974-1.431-5.853-16.713-1.951-17.754a25.492,25.492,0,0,0,4.261-1.8c4.511-2.255,10.046-5.681,10.046-5.681s8.259-.91,6.243,4.812a5.371,5.371,0,0,0,.408,5.036A7.031,7.031,0,0,0,485.043,175.01Z" transform="translate(-356.166 -128.07)" fill="#fdc2cc"/><path d="M485.043,191.32l-1.366,8.129s-11.836,6.243-12.031,6.243-8.649-1.431-8.974-1.431-5.853-16.713-1.951-17.754a25.492,25.492,0,0,0,4.261-1.8c1.064.07,1.787.172,1.787.172s2.6,9.95,2.8,13.006,6.958,3.382,7.414,3.252,2.341-7.609,2.341-7.609-.2-2.6.39-2.6c.489,0,1.618-1.561,1.969-2.052A7.031,7.031,0,0,0,485.043,191.32Z" transform="translate(-356.166 -144.379)" opacity="0.1"/><path d="M477.209,417.663c-.905.442-3.069,1.452-3.642,1.3a14.131,14.131,0,0,0-2.471-.2s-1.04,1.171-2.146.91a39.4,39.4,0,0,0-5.463-.065s-7.8.325-9.3-.2a50.81,50.81,0,0,0-6.828-.975s-7.284-.845-8.519-1.366a2.131,2.131,0,0,0-2.146.26s-.226-.148-.5-.364c.307-1.186.7-2.432.7-2.432s33.426-3.121,38.238.13A5.387,5.387,0,0,1,477.209,417.663Z" transform="translate(-339.044 -313.427)" opacity="0.1"/><path d="M430.395,183.765s-6.568-.91-9.169.845a7.694,7.694,0,0,1-3.064,1.184,5.736,5.736,0,0,0-3.689,2.2c-.166.224-.328.375-.466.39-.585.065-3.837,10.145-3.837,10.145l7.869,10.99s-.2,6.113.91,7.284-1.561,14.567-1.561,14.567-1.3,4.617-.715,5.333a1.476,1.476,0,0,1,0,1.626s-.13,1.171.2,1.171.715,1.5.39,1.561-1.821,1.3-1.3,1.561,0,.845,0,1.431,1.5,1.561,1.5,1.561a2.13,2.13,0,0,1,2.146-.26c1.236.52,8.519,1.366,8.519,1.366a50.825,50.825,0,0,1,6.828.975c1.5.52,9.3.2,9.3.2a39.4,39.4,0,0,1,5.463.065c1.105.26,2.146-.91,2.146-.91a14.133,14.133,0,0,1,2.471.2c.715.2,4.032-1.5,4.032-1.5s-.845-2.471-.455-3.382a6.484,6.484,0,0,0,.13-2.666s-1.561-.91-1.626-1.3-.715-.91-.52-1.431,1.3-.26,1.171-1.431-1.5-2.406-1.366-3.122.65-2.016,0-2.8a5.465,5.465,0,0,1-.976-2.991c-.065-.975.976-9.82.976-9.82l-2.406-17.819,7.349-3.642a27.45,27.45,0,0,0-.78-3.9c-.455-1.366-1.106-3.772-1.106-3.772a19.8,19.8,0,0,0-1.821-3.056c-.325-.13-3.772-2.406-4.552-2.081s-6.958,5.072-6.958,5.072-1.5,2.211-2.081,2.211-.39,2.6-.39,2.6-1.886,7.479-2.341,7.609-7.219-.2-7.414-3.252S430.395,183.765,430.395,183.765Z" transform="translate(-319.792 -142.743)" fill="#d39999"/><path d="M430.741,323.668a14.752,14.752,0,0,1-2.744.338c-1.334.036-2.508-.133-2.8-.614a9.219,9.219,0,0,1-.78-3.772s3.527.814,5.962,1.7l.4.151h0a3.909,3.909,0,0,1,1.821,1.069C432.832,322.983,431.961,323.394,430.741,323.668Z" transform="translate(-330.335 -244.196)" fill="#fdc2cc"/><circle cx="11.901" cy="11.901" r="11.901" transform="translate(114.049 19.497)" opacity="0.1"/><circle cx="11.901" cy="11.901" r="11.901" transform="translate(114.049 18.977)" fill="#fdc2cc"/><path d="M445.67,395.37a30.006,30.006,0,0,1,4.682.325,25.95,25.95,0,0,0,4.032.39S446.841,395.825,445.67,395.37Z" transform="translate(-346.058 -300.241)" opacity="0.1"/><path d="M446.17,403.37s4.357.325,4.422.975S446.17,403.37,446.17,403.37Z" transform="translate(-346.427 -306.16)" opacity="0.1"/><path d="M573.67,372.62s2.666.975,2.6,1.3S573.93,373.4,573.67,372.62Z" transform="translate(-440.762 -283.409)" opacity="0.1"/><path d="M397.973,239.62l-1.691,1.171s-.715,4.162-.715,5.138-1.171,8-1.171,8a5.386,5.386,0,0,0-.26,1.821,16.2,16.2,0,0,1-.52,3.187s-2.341,5.4-2.211,5.723,11.12,1.366,11.12,1.366l1.561-14.567Z" transform="translate(-305.904 -185.006)" fill="#d39999"/><path d="M393.045,329.12l-1.626,1.756s-.065,5.723,1.561,6.308,2.666.325,3.187.78a17.8,17.8,0,0,0,3.317,1.3,25.184,25.184,0,0,0,3.967.325c.91-.13-5.333-5.137-1.236-9.365Z" transform="translate(-305.918 -251.225)" fill="#d39999"/><path d="M579.328,222.12l2.276,2.536s.976,6.048.715,6.893,1.366,15.543,1.366,15.543,1.561,6.373-1.951,7.218a6.145,6.145,0,0,0-.845.91c-.13.26-2.926-.13-2.926-.13l-4.292-28.159Z" transform="translate(-440.762 -172.058)" fill="#d39999"/><path d="M444.235,282.58s8.519-5.072,10.08-5.333,11.25-4.877,11.25-4.877,4.812,2.471,5.268,4.357-2.016,9.43-2.016,9.43-7.934,5.528-8.389,6.7-7.284,4.617-7.284,5.2-10.8,6.958-15.542,1.366-4.682-7.218-4.682-7.218l12.031-2.8,1.171-5.2Z" transform="translate(-336.624 -209.237)" opacity="0.1"/><path d="M444.235,280.58s8.519-5.072,10.08-5.333,11.25-4.877,11.25-4.877,4.812,2.471,5.268,4.357-2.016,9.43-2.016,9.43-7.934,5.528-8.389,6.7-7.284,4.617-7.284,5.2-10.8,6.958-15.542,1.366-4.682-7.218-4.682-7.218l12.031-2.8,1.171-5.2Z" transform="translate(-336.624 -207.757)" fill="#c4c8e2"/><path d="M398.683,311.173l-.39,3.252L395.2,314.2l-3.02-.224s-1.756,0-2.861-2.6,2.471-2.991,2.666-2.6c.148.294,3.9,1.519,5.723,2.1Z" transform="translate(-304.208 -236.074)" fill="#fdc2cc"/><path d="M416.013,317.512l-.39,3.252-3.093-.226c.5-.749,1.561-2.12,2.51-3.327Z" transform="translate(-321.538 -242.413)" opacity="0.1"/><path d="M424.42,319.62s3.527.814,5.962,1.7A9.848,9.848,0,0,1,428,324.006c-1.334.036-2.508-.133-2.8-.614A9.219,9.219,0,0,1,424.42,319.62Z" transform="translate(-330.335 -244.196)" opacity="0.1"/><path d="M448.318,328.95l-.057-.45s-.026-.1-.049-.242a1.611,1.611,0,0,1,.138-1.1c.127-.179.1-.307.016-.4a3.908,3.908,0,0,1,1.821,1.069C450.409,328.266,449.538,328.677,448.318,328.95Z" transform="translate(-347.912 -249.478)" opacity="0.1"/><path d="M413.662,303.93s-3.532,3.535-3.751,4.292-6.893.78-6.893.78l-.455-3.642s-.026-.1-.049-.242a1.611,1.611,0,0,1,.138-1.1c.325-.455-.369-.585-.369-.585s-1.8,2.968-3.317,3.056c0,0-2.1,1.517-2.081,1.821a3.338,3.338,0,0,0-1.041,2.058c-.021,1.126-1.321,1.584-2.276,1.259a15.277,15.277,0,0,0-4.076-.91c-.76.109-3.163.822-3.077-1.41,0,0,3.122-2.341,3.9-2.276a3.965,3.965,0,0,0,2.861-1.561c.26-.715,4.682-6.178,4.682-6.178s2.8-2.645,3.923-2.906c0,0,2.255-1.756,5.658.91,0,0,4.706,2.9,4.857,3.293.12.307,1.485,1.618,1.6,2.6a.8.8,0,0,1-.234.739Z" transform="translate(-302.214 -226.586)" fill="#fdc2cc"/><path d="M447.766,307.12a10.939,10.939,0,0,1,.174,2.711c-.172.715-.52,1.951-.52,1.951S449.522,308.486,447.766,307.12Z" transform="translate(-347.352 -234.947)" opacity="0.1"/><path d="M449.33,323.118s1.085-1.194,1.324-.89S449.33,323.118,449.33,323.118Z" transform="translate(-348.765 -246.089)" opacity="0.1"/><path d="M576.767,257.388a7.611,7.611,0,0,1-5.525,7.32A7.485,7.485,0,0,1,569.2,265h-.039a7.609,7.609,0,0,1-7.606-7.611,7.258,7.258,0,0,1,.12-1.332,7.6,7.6,0,0,1,6.935-6.243c.182-.016.367-.023.552-.023a7.609,7.609,0,0,1,7.611,7.6Z" transform="translate(-431.794 -192.53)" fill="#f8bdc5"/><path d="M600.473,252.987a2.677,2.677,0,0,1,.619,1.576,2.989,2.989,0,0,0-3.2,2.268q-.356.835-.708,1.67a8.236,8.236,0,0,1-1.392,2.456,4.8,4.8,0,0,0-.723.838c-.18.325-.26.736-.551.955a1.041,1.041,0,0,1-.983.055c-.32-.12-.606-.32-.926-.447a2.948,2.948,0,0,0-.637-.167h0c-.952-.14-2,.065-2.809-.447a1.667,1.667,0,0,1-.26-.213,2.516,2.516,0,0,1-.663-1.124,1.263,1.263,0,0,1-.062-.538,1.163,1.163,0,0,1,.6-.78c.044-.026.089-.052.135-.075.78-.408,1.865-.5,2.273-1.3a2.1,2.1,0,0,0-.687-2.281c-.281-.286-.614-.611-.575-1.012.036-.354.351-.6.614-.838a4.558,4.558,0,0,0,1.425-2.557,1.943,1.943,0,0,0-.016-.923,2.445,2.445,0,0,0-.33-.606l-.843-1.249a3.426,3.426,0,0,0-1.041-1.1c-.351-.211-.754-.284-1.108-.492a.879.879,0,0,1-.328-.312.336.336,0,0,1-.042-.245c.044-.208.26-.31.476-.369a4.637,4.637,0,0,1,1.722-.164,1.337,1.337,0,0,0,.557,0,.393.393,0,0,0,.289-.424c.64-.166,1.246.333,1.714.8s1.04.981,1.7.848c.237-.047.455-.182.695-.208s.536.13.52.372-.317.4-.291.632a.466.466,0,0,0,.107.218,5.5,5.5,0,0,0,1.059,1.1v-1.384c.52.13.71.8.65,1.334a4.777,4.777,0,0,0-.135,1.608.591.591,0,0,0,.312.424.78.78,0,0,0,.408,0,3.1,3.1,0,0,1,3.181,1.2l-1.041-.377,1.21.661a1.273,1.273,0,0,1,.432.325.432.432,0,0,1,.031.5A1.615,1.615,0,0,0,600.473,252.987Z" transform="translate(-451.486 -189.063)" fill="#585268"/><g transform="translate(136.734 55.983)" opacity="0.1"><path d="M626.618,266.96a.781.781,0,0,0,.408,0c.117-.016.234-.026.354-.034a4.2,4.2,0,0,0-.78.023Z" transform="translate(-616.657 -261.186)"/><path d="M636.43,270.26l.447.247-.083-.117Z" transform="translate(-623.93 -263.659)"/><path d="M622.05,255.524v-.91a.8.8,0,0,0-.52-.473v.916A5.591,5.591,0,0,0,622.05,255.524Z" transform="translate(-612.906 -251.732)"/><path d="M638.43,275.01a1.611,1.611,0,0,1,.64.26.322.322,0,0,0,.065-.211A1.655,1.655,0,0,0,638.43,275.01Z" transform="translate(-625.41 -267.161)"/><path d="M594.261,263.908c-.32-.12-.606-.32-.926-.447a2.948,2.948,0,0,0-.637-.166h0c-.952-.141-2,.065-2.809-.447a1.681,1.681,0,0,1-.26-.213,2.518,2.518,0,0,1-.663-1.124,1.266,1.266,0,0,1-.062-.538,1.163,1.163,0,0,1,.6-.78c.044-.026.088-.052.135-.075.793-.408,1.865-.5,2.273-1.3a2.1,2.1,0,0,0-.687-2.281c-.281-.286-.614-.611-.575-1.012.036-.354.351-.6.614-.838a4.557,4.557,0,0,0,1.426-2.557,1.944,1.944,0,0,0-.016-.923,2.45,2.45,0,0,0-.33-.606l-.843-1.249a3.425,3.425,0,0,0-1.04-1.1c-.351-.211-.754-.284-1.108-.492a.88.88,0,0,1-.328-.312.336.336,0,0,1-.042-.244c.044-.208.273-.31.476-.369a4.809,4.809,0,0,1,1.041-.172,4.681,4.681,0,0,0-1.561.172c-.2.06-.432.161-.476.369a.335.335,0,0,0,.042.244.878.878,0,0,0,.328.312c.354.208.757.281,1.108.492a3.427,3.427,0,0,1,1.04,1.1l.843,1.249a2.448,2.448,0,0,1,.33.606,1.943,1.943,0,0,1,.016.923,4.558,4.558,0,0,1-1.425,2.557c-.26.237-.578.484-.614.838-.039.4.294.726.575,1.012a2.1,2.1,0,0,1,.687,2.281c-.408.793-1.48.89-2.274,1.3-.047.023-.091.049-.135.075a1.163,1.163,0,0,0-.6.78,1.264,1.264,0,0,0,.062.538,2.518,2.518,0,0,0,.663,1.124,1.671,1.671,0,0,0,.26.213c.809.52,1.857.307,2.809.447h0a2.945,2.945,0,0,1,.637.166c.32.127.606.328.926.447a1.227,1.227,0,0,0,.733.062,1.544,1.544,0,0,1-.213-.062Z" transform="translate(-588.375 -246.189)"/><path d="M614.146,250.742a3.822,3.822,0,0,0,.471-.153.56.56,0,0,0-.3-.055,5.482,5.482,0,0,0-.65.2A1.084,1.084,0,0,0,614.146,250.742Z" transform="translate(-607.09 -249.062)"/><path d="M599.068,245.35a1.337,1.337,0,0,0,.557-.013.393.393,0,0,0,.289-.421,1.04,1.04,0,0,0-.52,0,.393.393,0,0,1-.289.424.417.417,0,0,1-.055.013Z" transform="translate(-596.273 -244.883)"/></g><path d="M536.578,253.583a7.88,7.88,0,0,1-3.941,1.145,21.162,21.162,0,0,1-3.343,0l-2.5-.942s.2-.4.546-.936c.684-1.061,1.928-2.64,3.226-2.575,1.951.1,4,.193,4.2.193S538.756,251.957,536.578,253.583Z" transform="translate(-406.076 -192.887)" fill="#fdc2cc"/><path d="M477.711,62.793a13.427,13.427,0,0,0-5.463.658c-3.415,1.412-5.026,5.187-7.091,8.23a23.538,23.538,0,0,1-6.438,6.376c-1.2.78-2.586,1.639-2.874,3.043-.307,1.485.754,2.861,1.3,4.269,1.158,2.994,0,6.311-.684,9.448a30.669,30.669,0,0,0-.616,4.573,6.347,6.347,0,0,0,.138,2.128c.52,1.836,2.487,3.163,2.5,5.072,0,1.3-.916,2.528-.648,3.793.346,1.615,2.307,2.2,3.933,2.476a2.011,2.011,0,0,0,1.184-.036c.26-.125.473-.364.739-.5.9-.447,1.9.5,2.913.479,1.267-.023,1.98-1.519,2.011-2.786s-.307-2.6.148-3.772c.606-1.561,2.341-2.3,3.806-3.122a7.063,7.063,0,0,0,3.642-4.011,9.384,9.384,0,0,0,.044-3.421c-.182-1.748-.325-3.5-.424-5.257a7.41,7.41,0,0,1,7.923-7.853h.083c1.3.107,2.835.232,3.754-.715.364-.377.6-.9,1.041-1.158.869-.494,2.063.211,2.937-.276a2.006,2.006,0,0,0,.723-2.081,7.344,7.344,0,0,1-.234-2.326c.208-1.085,1.194-1.86,1.561-2.9a4.341,4.341,0,0,0-.689-3.595,14.469,14.469,0,0,0-10.379-6.537C480.941,62.837,479.326,62.819,477.711,62.793Z" transform="translate(-353.545 -54.167)" fill="#865a61"/><path d="M527.336,260.15a26.227,26.227,0,0,1,5.3,1.883,21.161,21.161,0,0,1-3.343,0l-2.505-.942A10.867,10.867,0,0,1,527.336,260.15Z" transform="translate(-406.076 -200.195)" opacity="0.1"/><path d="M572.278,283.481c-.952-.14-2,.065-2.809-.447a1.676,1.676,0,0,1-.26-.213h-.039a7.609,7.609,0,0,1-7.619-7.609,7.257,7.257,0,0,1,.12-1.332c2.666,1.491,4.828,3.023,5.244,3.772a15.487,15.487,0,0,0,2.159,2.724c.726.78,1.5,1.53,2.169,2.156C571.638,282.9,571.994,283.224,572.278,283.481Z" transform="translate(-431.794 -210.354)" opacity="0.1"/><path d="M537.613,274.4s-4.747-4.1-6.048-6.438-19.574-12.291-17.233-4.747,10.405,8.259,10.405,8.259,2.6,2.926,2.861,4.357a20.37,20.37,0,0,0,1.171,3.512l4.357,1.951,2.016-.455S539.889,278.238,537.613,274.4Z" transform="translate(-396.705 -200.408)" fill="#fdc2cc"/><path d="M569.42,315.473s7.674,4.357,8.454-5.853l1.951.65-1.951,6.893-3.317,2.406S569.94,317.424,569.42,315.473Z" transform="translate(-437.617 -236.797)" opacity="0.1"/><path d="M570.42,316.473s7.674,4.357,8.454-5.853l1.951.65-1.951,6.893-3.317,2.406S570.94,318.424,570.42,316.473Z" transform="translate(-438.357 -237.537)" fill="#d39999"/><path d="M553.5,111.829a23.506,23.506,0,0,1,.655-2.671,7.058,7.058,0,0,0,.078-2.643,3.838,3.838,0,0,0-.687-1.758c-.26-.325-1.041-1.04-1.5-.718-.26.185-.33,1.254-.434,1.561a13.477,13.477,0,0,1-1.457,2.926,11.9,11.9,0,0,1-9.625,18.88c-.284,0-.565-.013-.843-.034-.26.453-.5.91-.736,1.368a4.248,4.248,0,0,0-.562,1.517,3.948,3.948,0,0,0,.232,1.509,21.277,21.277,0,0,0,1.992,4.55,6.883,6.883,0,0,1,.715,1.423c.148.481.174,1,.367,1.459a4.365,4.365,0,0,0,2.6,2,4.25,4.25,0,0,0,1.943.466.453.453,0,0,0,.486-.46,1.761,1.761,0,0,0-.52-1.5,7.465,7.465,0,0,0,2.731.325.44.44,0,0,0,.473-.645,11.7,11.7,0,0,0-1.087-2.815c-.473-.874-1.077-1.891-.645-2.783a3.083,3.083,0,0,1,1.241-1.121c1.6-1.04,3.017-2.737,2.893-4.643-.068-1.04-.593-2.032-.624-3.08-.081-2.557,2.671-4.386,3.088-6.912C554.606,115.962,553.3,113.917,553.5,111.829Z" transform="translate(-414.656 -84.632)" fill="#865a61"/><g transform="translate(102.122 17.432)" opacity="0.1"><path d="M458,210.249c-.016-1.909-1.98-3.236-2.5-5.072a4.275,4.275,0,0,1-.148-.887,5.842,5.842,0,0,0,.148,1.928c.479,1.678,2.154,2.932,2.453,4.594A3.119,3.119,0,0,0,458,210.249Z" transform="translate(-455.327 -176.298)"/><path d="M471.762,243.906c-1.009.018-2.011-.926-2.914-.479-.26.133-.468.372-.739.5a2.011,2.011,0,0,1-1.184.036c-1.621-.278-3.577-.858-3.928-2.461a2.661,2.661,0,0,0,0,1.025c.346,1.615,2.307,2.2,3.933,2.476a2.011,2.011,0,0,0,1.184-.036c.26-.125.473-.364.739-.5.9-.447,1.9.5,2.913.479,1.267-.023,1.979-1.519,2.011-2.786,0-.26,0-.52-.018-.78C473.627,242.582,472.94,243.882,471.762,243.906Z" transform="translate(-460.963 -203.74)"/><path d="M511.881,195.491a7.1,7.1,0,0,1-3.642,4.011c-1.464.822-3.2,1.561-3.806,3.121a4.977,4.977,0,0,0-.224,2.094,3.685,3.685,0,0,1,.224-1.054c.606-1.561,2.341-2.3,3.806-3.121a7.063,7.063,0,0,0,3.642-4.011,6.576,6.576,0,0,0,.164-2.081A5.353,5.353,0,0,1,511.881,195.491Z" transform="translate(-491.47 -169.018)"/><path d="M546.906,127.083a3.205,3.205,0,0,0-1.821.109c-.455.26-.687.78-1.04,1.158-.918.947-2.44.822-3.754.715h-.083a7.413,7.413,0,0,0-7.923,7.853v.1a7.406,7.406,0,0,1,7.918-6.917h.083c1.3.107,2.835.232,3.754-.715.364-.377.6-.9,1.041-1.158a3.187,3.187,0,0,1,1.821-.109,11.858,11.858,0,0,1,.845,3.9c0-.169.013-.338.013-.52a11.884,11.884,0,0,0-.854-4.423Z" transform="translate(-512.254 -119.118)"/><path d="M457.141,139.891a8.035,8.035,0,0,0-.476-3.33,18.247,18.247,0,0,1-1.3-3.192c-.284,1.47.765,2.83,1.3,4.232A7.461,7.461,0,0,1,457.141,139.891Z" transform="translate(-455.316 -123.826)"/><path d="M596.7,116.12a6.765,6.765,0,0,1-.146,1,23.544,23.544,0,0,0-.656,2.671,5.134,5.134,0,0,0,0,.978,24.968,24.968,0,0,1,.648-2.6,7.05,7.05,0,0,0,.154-2.045Z" transform="translate(-559.316 -111.063)"/><path d="M590.143,153.426c-.416,2.526-3.168,4.354-3.088,6.912a3.569,3.569,0,0,0,.036.414c.328-2.24,2.671-3.969,3.051-6.285a4.817,4.817,0,0,0,.026-1.267A1.68,1.68,0,0,1,590.143,153.426Z" transform="translate(-552.785 -138.498)"/><path d="M598.086,97.161a7.282,7.282,0,0,1-.936,1.561,3.615,3.615,0,0,1,.26.656,5.178,5.178,0,0,0,.669-1.189,3.121,3.121,0,0,0,.12-1.509A2.751,2.751,0,0,1,598.086,97.161Z" transform="translate(-560.255 -96.68)"/><path d="M577.247,195.39a6.069,6.069,0,0,1-2.861,3.886,3.159,3.159,0,0,0-1.241,1.121,1.722,1.722,0,0,0-.07,1.217,1.137,1.137,0,0,1,.07-.177,3.084,3.084,0,0,1,1.241-1.121c1.6-1.04,3.018-2.737,2.893-4.643C577.273,195.577,577.26,195.484,577.247,195.39Z" transform="translate(-542.384 -169.713)"/><path d="M546.046,214.579a.557.557,0,0,1-.336.114,4.217,4.217,0,0,1-1.943-.466,4.35,4.35,0,0,1-2.6-2c-.193-.463-.219-.978-.367-1.459a6.883,6.883,0,0,0-.715-1.423,21.281,21.281,0,0,1-1.993-4.55,7.009,7.009,0,0,1-.187-.731c-.018.086-.034.174-.044.26a3.95,3.95,0,0,0,.232,1.509,21.281,21.281,0,0,0,1.993,4.55,6.886,6.886,0,0,1,.715,1.423c.148.481.174,1,.367,1.459a4.365,4.365,0,0,0,2.6,2,4.25,4.25,0,0,0,1.943.466.453.453,0,0,0,.486-.46,1.725,1.725,0,0,0-.078-.78.313.313,0,0,1-.073.088Z" transform="translate(-516.386 -176.135)"/><path d="M570.982,237.635a.829.829,0,0,1-.341.081,7.466,7.466,0,0,1-2.731-.325,1.756,1.756,0,0,1,.533,1.184,7.437,7.437,0,0,0,2.2.182.44.44,0,0,0,.473-.645C571.076,237.949,571.029,237.791,570.982,237.635Z" transform="translate(-538.621 -200.788)"/></g><path d="M440.052,260.37s-.26,5.333.52,5.723S440.052,260.37,440.052,260.37Z" transform="translate(-341.87 -200.358)" opacity="0.1"/><path d="M496.92,314.37c.26,0,1.3.52,1.431,1.106S496.92,314.37,496.92,314.37Z" transform="translate(-383.976 -240.311)" opacity="0.1"/><path d="M494.42,317.62c.26,0,1.3.52,1.431,1.106S494.42,317.62,494.42,317.62Z" transform="translate(-382.126 -242.716)" opacity="0.1"/><path d="M503.67,326.62c.26,0,1.3.52,1.431,1.106S503.67,326.62,503.67,326.62Z" transform="translate(-388.97 -249.375)" opacity="0.1"/><path d="M459.459,324.507s-3.532,3.535-3.751,4.292-6.893.78-6.893.78l-.455-3.642s-.026-.1-.049-.242c1.844-.473,7.825-2.682,11.383-1.9A.8.8,0,0,1,459.459,324.507Z" transform="translate(-348.011 -247.163)" opacity="0.1"/><path d="M427.015,329.687s3.405-3.012,4.446-2.947,13.722-5.333,14.567.715-16.193,6.373-16.193,6.373l-2.6.975S425.064,330.077,427.015,329.687Z" transform="translate(-331.653 -247.869)" fill="#fdc2cc"/><path d="M424.76,343.492s1.561-2.167,2.037.476,1.194,5.9,1.194,5.9L424.5,348.13Z" transform="translate(-330.394 -261.239)" fill="#d39999"/><ellipse cx="11.651" cy="1.787" rx="11.651" ry="1.787" transform="translate(227.243 171.054)" fill="#457b9d" opacity="0.1"/><ellipse cx="18.209" cy="2.794" rx="18.209" ry="2.794" transform="translate(187.798 202.313)" fill="#457b9d" opacity="0.1"/><ellipse cx="24.085" cy="3.696" rx="24.085" ry="3.696" transform="translate(231.345 211.296)" fill="#457b9d" opacity="0.1"/><ellipse cx="18.209" cy="2.794" rx="18.209" ry="2.794" transform="translate(0 173.702)" fill="#457b9d" opacity="0.1"/><path d="M945.34,628.21s-1.647,7.674,5.684,8.584l.455-.853S945.8,630.6,945.34,628.21Z" transform="translate(-715.634 -472.514)" fill="#457b9d"/><path d="M960.244,624.887l-1.7.362-.172.039s-4.547-3.694-4.49-11.937a20.69,20.69,0,0,0,2.172,3.439C957.853,619.172,959.893,622.363,960.244,624.887Z" transform="translate(-722.068 -461.519)" fill="#457b9d"/><path d="M969.031,617.6a1.066,1.066,0,0,1-.918.12c-4.378-1.022-2.9-15.288-2.9-15.288.242.114.52,1.927,1.514,4.271C968.5,610.816,970.443,616.565,969.031,617.6Z" transform="translate(-730.277 -453.44)" fill="#457b9d"/><path d="M996.552,628.21s.286,7.674-7.047,8.584l-.455-.853S996.1,630.6,996.552,628.21Z" transform="translate(-748.091 -472.514)" fill="#457b9d"/><path d="M987.828,613.35a14.206,14.206,0,0,1-5.853,11.937l-.172-.039-1.7-.362c.335-2.531,2.391-5.723,4.191-8.1A18.445,18.445,0,0,1,987.828,613.35Z" transform="translate(-741.469 -461.519)" fill="#457b9d"/><path d="M978.785,616.851a2.7,2.7,0,0,1-.976.747h0a1.742,1.742,0,0,1-.356.12c-1.08.26-1.454-.52-1.392-1.844.1-2.341,1.579-6.425,2.906-9.474a11.814,11.814,0,0,1,2.747-3.969C981.709,602.43,981.644,613.537,978.785,616.851Z" transform="translate(-738.476 -453.44)" fill="#457b9d"/><path d="M975.044,583.2s-4.888,17.335-.682,19.949S976.126,584.735,975.044,583.2Z" transform="translate(-735.96 -439.212)" fill="#457b9d"/><path d="M945.34,628.21s-1.647,7.674,5.684,8.584l.455-.853S945.8,630.6,945.34,628.21Z" transform="translate(-715.634 -472.514)" opacity="0.1"/><path d="M960.244,624.887l-1.7.362-.172.039s-4.547-3.694-4.49-11.937a20.69,20.69,0,0,0,2.172,3.439C957.853,619.172,959.893,622.363,960.244,624.887Z" transform="translate(-722.068 -461.519)" opacity="0.1"/><path d="M969.031,617.6a1.066,1.066,0,0,1-.918.12c-4.378-1.022-2.9-15.288-2.9-15.288.242.114.52,1.927,1.514,4.271C968.5,610.816,970.443,616.565,969.031,617.6Z" transform="translate(-730.277 -453.44)" opacity="0.1"/><path d="M996.552,628.21s.286,7.674-7.047,8.584l-.455-.853S996.1,630.6,996.552,628.21Z" transform="translate(-748.091 -472.514)" opacity="0.1"/><path d="M987.828,613.35a14.206,14.206,0,0,1-5.853,11.937l-.172-.039-1.7-.362c.335-2.531,2.391-5.723,4.191-8.1A18.445,18.445,0,0,1,987.828,613.35Z" transform="translate(-741.469 -461.519)" opacity="0.1"/><path d="M978.785,616.851a2.7,2.7,0,0,1-.976.747h0a1.742,1.742,0,0,1-.356.12c-1.08.26-1.454-.52-1.392-1.844.1-2.341,1.579-6.425,2.906-9.474a11.814,11.814,0,0,1,2.747-3.969C981.709,602.43,981.644,613.537,978.785,616.851Z" transform="translate(-738.476 -453.44)" opacity="0.1"/><path d="M975.044,583.2s-4.888,17.335-.682,19.949S976.126,584.735,975.044,583.2Z" transform="translate(-735.96 -439.212)" opacity="0.1"/><path d="M945.671,628.21s-.965,7.674,6.365,8.584l.455-.853S946.126,630.6,945.671,628.21Z" transform="translate(-715.964 -472.514)" fill="#457b9d"/><path d="M960.956,624.887l-1.7.362-.172.039s-5.229-3.694-5.171-11.937c0,0,1.34,1.436,2.861,3.439C958.56,619.172,960.607,622.363,960.956,624.887Z" transform="translate(-722.09 -461.519)" fill="#457b9d"/><path d="M969.073,634.668l-1.7.362c-1.615-1.418-2.258-5.122-2.49-8.459C966.678,628.953,968.725,632.145,969.073,634.668Z" transform="translate(-730.208 -471.3)" opacity="0.1"/><path d="M970.235,617.6a1.067,1.067,0,0,1-.918.12c-4.378-1.022-3.579-15.288-3.579-15.288a19.755,19.755,0,0,1,2.2,4.271C969.7,610.816,971.64,616.565,970.235,617.6Z" transform="translate(-730.8 -453.44)" fill="#457b9d"/><path d="M998.5,628.21s.968,7.674-6.365,8.584l-.453-.853S998.045,630.6,998.5,628.21Z" transform="translate(-750.036 -472.514)" fill="#457b9d"/><path d="M989.767,613.35c.055,8.243-5.171,11.937-5.171,11.937l-.172-.039-1.7-.362c.338-2.531,2.391-5.723,4.191-8.1C988.427,614.786,989.767,613.35,989.767,613.35Z" transform="translate(-743.407 -461.519)" fill="#457b9d"/><path d="M986.911,626.57c-.219,3.122-.78,6.54-2.172,8.142a2.59,2.59,0,0,1-.315.317l-1.7-.362C983.053,632.145,985.111,628.953,986.911,626.57Z" transform="translate(-743.407 -471.3)" opacity="0.1"/><path d="M981.4,616.851a2.681,2.681,0,0,1-.975.747h0a1.821,1.821,0,0,1-.359.12c-1.077.26-1.454-.52-1.392-1.844.1-2.341,1.579-6.425,2.906-9.474a17.449,17.449,0,0,1,2.065-3.969S984.259,613.537,981.4,616.851Z" transform="translate(-740.407 -453.44)" fill="#457b9d"/><path d="M975.9,629.776a1.2,1.2,0,0,1-.692-.221c-2.06-1.282-2.1-6.1-1.61-10.665C975.368,622.995,977.309,628.744,975.9,629.776Z" transform="translate(-736.469 -465.618)" opacity="0.1"/><path d="M981.416,628.142c-.237.52-.557.78-.975.747h0a1.366,1.366,0,0,1-.588-.221,3.121,3.121,0,0,1-1.163-1.5c.1-2.341,1.579-6.425,2.906-9.474C982.066,621.933,982.223,626.407,981.416,628.142Z" transform="translate(-740.426 -464.73)" opacity="0.1"/><path d="M976.526,583.2s-4.2,17.335,0,19.949S977.608,584.735,976.526,583.2Z" transform="translate(-737.442 -439.212)" fill="#457b9d"/><path d="M900.354,626.99h-17.5v2.9h2.669l.068.341,1.069,5.626h10.176l1.069-5.626.065-.341h2.388Z" transform="translate(-653.198 -463.903)" fill="#4b4770"/><path d="M900.354,626.99h-17.5v2.9h2.669l.068.341,1.069,5.626h10.176l1.069-5.626.065-.341h2.388Z" transform="translate(-653.198 -463.903)" opacity="0.1"/><path d="M907.762,633.54l-.291,1.535L906.4,640.7H896.223l-1.069-5.626-.294-1.535Z" transform="translate(-662.084 -468.75)" fill="#4b4770"/><path d="M907.762,633.54l-.291,1.535H895.154l-.294-1.535Z" transform="translate(-662.084 -468.75)" opacity="0.1"/><rect width="17.504" height="2.898" transform="translate(230.333 163.087)" fill="#4b4770"/><path d="M125.723,585.3a4.467,4.467,0,0,0-.593,1.116c-.036.1-.073.208-.109.315a.959.959,0,0,0-.206-.07,2.874,2.874,0,0,0-.929-.081c0-.12.016-.26.018-.382.039-1.371-.122-3.28-1.431-2.471-1.254.78-.359,2.081.45,2.913.07.073.14.14.208.206-.739.52-.879,1.751-1,3.028a7.079,7.079,0,0,1-1.928,3.47c-.073.081-.138.154-.2.221a2.627,2.627,0,0,0-2.081-.538c-.029-.112-.06-.229-.1-.354-.6-2.115-1.8-5.757-3.348-6.537.065-.081.133-.164.2-.26.656-.858,1.394-2.133.3-2.458s-1.189,1.106-1.129,2.177c0,.133.021.26.031.38a1.6,1.6,0,0,0-1.137.551l-.169-.2c-.884-1.04-2.505-2.695-3-1.444-.455,1.163.97,2.677,1.974,3.553l.062.055c-.674,2.737,2.268,4.966,3.852,5.939l.206.127c-2.185,2.573-3.535,7.4-3.535,7.4l6.121,1.093s4.055-3.5,3.535-6.787h.042c4.055-.814,4.976-5.137,4.347-7.7l.07-.031a4.606,4.606,0,0,0,1.878-1.418A1.509,1.509,0,0,0,125.723,585.3Z" transform="translate(-97.33 -439.337)" fill="#457b9d"/><path d="M125.723,585.3a4.467,4.467,0,0,0-.593,1.116c-.036.1-.073.208-.109.315a.959.959,0,0,0-.206-.07,2.874,2.874,0,0,0-.929-.081c0-.12.016-.26.018-.382.039-1.371-.122-3.28-1.431-2.471-1.254.78-.359,2.081.45,2.913.07.073.14.14.208.206-.739.52-.879,1.751-1,3.028a7.079,7.079,0,0,1-1.928,3.47c-.073.081-.138.154-.2.221a2.627,2.627,0,0,0-2.081-.538c-.029-.112-.06-.229-.1-.354-.6-2.115-1.8-5.757-3.348-6.537.065-.081.133-.164.2-.26.656-.858,1.394-2.133.3-2.458s-1.189,1.106-1.129,2.177c0,.133.021.26.031.38a1.6,1.6,0,0,0-1.137.551l-.169-.2c-.884-1.04-2.505-2.695-3-1.444-.455,1.163.97,2.677,1.974,3.553l.062.055c-.674,2.737,2.268,4.966,3.852,5.939l.206.127c-2.185,2.573-3.535,7.4-3.535,7.4l6.121,1.093s4.055-3.5,3.535-6.787h.042c4.055-.814,4.976-5.137,4.347-7.7l.07-.031a4.606,4.606,0,0,0,1.878-1.418A1.509,1.509,0,0,0,125.723,585.3Z" transform="translate(-97.33 -439.337)" opacity="0.1"/><path d="M114.6,590.048l-.715,2.081s-.4-.281-.9-.723c-1-.877-2.43-2.391-1.974-3.553.492-1.251,2.112.4,3,1.444C114.365,589.726,114.6,590.048,114.6,590.048Z" transform="translate(-98.388 -442.322)" fill="#457b9d"/><path d="M128.478,585.88a10.117,10.117,0,0,1-.7.819,10.978,10.978,0,0,1-.127-1.1c-.06-1.072.055-2.495,1.129-2.177S129.134,585.016,128.478,585.88Z" transform="translate(-110.756 -439.342)" fill="#457b9d"/><path d="M160.489,586.664c-.021.689-.088,1.241-.088,1.241a8.7,8.7,0,0,1-.892-.8c-.809-.838-1.7-2.133-.45-2.913C160.367,583.383,160.528,585.3,160.489,586.664Z" transform="translate(-133.54 -439.804)" fill="#457b9d"/><path d="M173.05,590.9a4.6,4.6,0,0,1-1.878,1.418,5.034,5.034,0,0,1-.629.229l-.843-1.184a8.6,8.6,0,0,1,.349-1.15,4.469,4.469,0,0,1,.593-1.116A1.505,1.505,0,0,1,173.05,590.9Z" transform="translate(-141.874 -443.133)" fill="#457b9d"/><path d="M119.872,594.73c.356.416.593.739.593.739l-.715,2.081s-.4-.281-.9-.723a4.083,4.083,0,0,1,.806-1.839Z" transform="translate(-104.252 -447.743)" opacity="0.1"/><path d="M128.515,592.2a10.111,10.111,0,0,1-.7.819,10.978,10.978,0,0,1-.127-1.1A1.42,1.42,0,0,1,128.515,592.2Z" transform="translate(-110.792 -445.664)" opacity="0.1"/><path d="M125.374,601.552l-1.782.78s-.388-.187-.947-.536c-1.87-1.15-5.629-4.045-3.122-7.458s4.622,2.708,5.463,5.7C125.238,600.938,125.374,601.552,125.374,601.552Z" transform="translate(-104.132 -446.708)" fill="#457b9d"/><path d="M162.56,594.682a1.467,1.467,0,0,1,.981-.442c-.021.689-.088,1.241-.088,1.241A8.7,8.7,0,0,1,162.56,594.682Z" transform="translate(-136.592 -447.38)" opacity="0.1"/><path d="M171.172,597.184a5.043,5.043,0,0,1-.629.229l-.843-1.184a8.6,8.6,0,0,1,.349-1.15A3.03,3.03,0,0,1,171.172,597.184Z" transform="translate(-141.874 -448.002)" opacity="0.1"/><path d="M148.205,605.345l-.3.052c-5.965.905-1.967-2.312-1.967-2.312s.26-.26.632-.65a7.065,7.065,0,0,0,1.928-3.47c.187-1.933.4-3.746,2.685-3.212C153.423,596.266,153.852,604.213,148.205,605.345Z" transform="translate(-123.324 -448.428)" fill="#457b9d"/><rect width="11.396" height="2.997" transform="translate(13.373 171.767)" fill="#d4dfec"/><rect width="14.89" height="10.457" transform="translate(11.563 162.025)" fill="#d4dfec"/><rect width="11.396" height="2.997" transform="translate(13.373 171.767)" opacity="0.1"/><rect width="14.89" height="10.457" transform="translate(11.563 162.025)" opacity="0.1"/><rect width="11.396" height="2.997" transform="translate(14.122 171.767)" fill="#d4dfec"/><path d="M136.241,619.13c.26.895.388,1.509.388,1.509l-1.782.78s-.388-.187-.947-.536A4.582,4.582,0,0,1,136.241,619.13Z" transform="translate(-115.387 -465.796)" opacity="0.1"/><path d="M148.205,624.621l-.3.052c-5.965.905-1.967-2.312-1.967-2.312s.26-.26.632-.65A3.945,3.945,0,0,1,148.205,624.621Z" transform="translate(-123.324 -467.705)" opacity="0.1"/><path d="M121.1,629.279s3.34-11.966,8.025-8.272-1.9,9.364-1.9,9.364Z" transform="translate(-105.916 -466.661)" fill="#457b9d"/><circle cx="0.375" cy="0.375" r="0.375" transform="translate(16.495 149.133)" opacity="0.1"/><circle cx="0.375" cy="0.375" r="0.375" transform="translate(16.463 150.881)" opacity="0.1"/><circle cx="0.375" cy="0.375" r="0.375" transform="translate(27.329 149.477)" opacity="0.1"/><circle cx="0.375" cy="0.375" r="0.375" transform="translate(18.586 158.435)" opacity="0.1"/><circle cx="0.375" cy="0.375" r="0.375" transform="translate(26.548 152.38)" opacity="0.1"/><circle cx="0.375" cy="0.375" r="0.375" transform="translate(22.678 156.25)" opacity="0.1"/><circle cx="0.375" cy="0.375" r="0.375" transform="translate(17.774 149.883)" opacity="0.1"/><circle cx="0.375" cy="0.375" r="0.375" transform="translate(26.299 150.601)" opacity="0.1"/><circle cx="0.375" cy="0.375" r="0.375" transform="translate(25.019 153.504)" opacity="0.1"/><circle cx="0.375" cy="0.375" r="0.375" transform="translate(21.086 158.155)" opacity="0.1"/><circle cx="0.375" cy="0.375" r="0.375" transform="translate(20.274 156.313)" opacity="0.1"/><circle cx="0.375" cy="0.375" r="0.375" transform="translate(18.336 152.161)" opacity="0.1"/><rect width="11.396" height="1.095" transform="translate(14.122 171.767)" opacity="0.1"/><rect width="14.89" height="10.457" transform="translate(12.312 162.025)" fill="#d4dfec"/><circle cx="0.375" cy="0.375" r="0.375" transform="translate(21.585 159.84)" opacity="0.1"/><circle cx="0.375" cy="0.375" r="0.375" transform="translate(19.338 160.308)" opacity="0.1"/></g></svg>